<?xml version="1.0" standalone="no"?>
<!DOCTYPE svg PUBLIC "-//W3C//DTD SVG 20010904//EN"
 "http://www.w3.org/TR/2001/REC-SVG-20010904/DTD/svg10.dtd">
<svg version="1.0" xmlns="http://www.w3.org/2000/svg"
 width="1672.000000pt" height="1672.000000pt" viewBox="0 0 1672.000000 1672.000000"
 preserveAspectRatio="xMidYMid meet">
<metadata>
Created by potrace 1.14, written by Peter Selinger 2001-2017
</metadata>
<g transform="translate(0.000000,1672.000000) scale(0.100000,-0.100000)"
fill="#000000" stroke="none">
<path d="M8288 16545 c-1 -1 -79 -6 -173 -9 -93 -4 -186 -8 -205 -10 -19 -2
-71 -7 -115 -11 -44 -3 -89 -8 -100 -10 -11 -2 -45 -7 -76 -10 -31 -3 -66 -7
-76 -9 -11 -3 -44 -7 -74 -11 -30 -3 -61 -8 -69 -10 -8 -2 -31 -7 -50 -10 -34
-5 -121 -21 -170 -30 -14 -2 -77 -16 -140 -31 -63 -14 -123 -27 -133 -29 -72
-15 -446 -126 -570 -169 -267 -94 -601 -231 -639 -263 -9 -8 -22 -15 -30 -17
-7 -1 -30 -12 -49 -24 -20 -12 -39 -22 -43 -22 -7 0 -278 -162 -381 -228 -390
-250 -600 -359 -900 -465 -164 -58 -439 -138 -556 -161 -13 -2 -71 -14 -129
-26 -58 -12 -116 -23 -130 -25 -14 -2 -52 -8 -85 -14 -131 -23 -208 -34 -330
-46 -38 -4 -78 -9 -88 -11 -9 -1 -56 -6 -105 -9 -48 -4 -103 -8 -122 -10 -230
-23 -1212 -24 -1395 -1 -16 2 -57 7 -90 11 -109 12 -170 21 -250 40 -33 7 -78
16 -100 19 -22 4 -48 9 -57 12 -55 17 -55 16 -63 -54 -4 -37 -8 -76 -10 -87
-2 -11 -7 -47 -11 -80 -3 -33 -7 -67 -9 -75 -1 -8 -6 -44 -10 -80 -3 -36 -8
-76 -10 -90 -2 -14 -6 -54 -10 -90 -3 -36 -8 -81 -10 -100 -3 -19 -7 -64 -10
-100 -3 -36 -7 -90 -10 -120 -17 -195 -28 -376 -41 -685 -10 -235 -10 -1043 0
-1305 10 -276 22 -493 31 -610 3 -30 7 -98 10 -150 4 -52 8 -111 10 -130 2
-19 7 -71 10 -115 3 -44 8 -91 10 -105 2 -14 6 -59 10 -100 8 -89 14 -144 20
-185 3 -16 7 -55 10 -85 3 -30 7 -71 10 -90 3 -19 8 -57 11 -85 10 -81 13
-108 18 -145 3 -19 8 -57 12 -85 3 -27 8 -59 10 -70 2 -10 6 -37 9 -60 3 -22
10 -65 15 -95 5 -30 12 -71 14 -90 3 -19 14 -89 26 -155 11 -66 23 -136 26
-155 3 -19 17 -91 31 -160 13 -69 26 -136 29 -150 2 -14 11 -55 19 -92 8 -36
17 -83 21 -104 3 -20 10 -49 16 -63 5 -14 9 -27 8 -29 -2 -3 7 -48 31 -152
275 -1190 699 -2311 1229 -3250 51 -91 102 -180 112 -198 115 -205 443 -716
587 -915 31 -42 80 -110 109 -150 28 -39 60 -83 70 -96 26 -37 214 -283 233
-306 10 -11 68 -83 130 -160 90 -112 284 -340 309 -365 3 -3 23 -25 44 -50
221 -255 781 -815 1036 -1036 25 -21 47 -41 50 -44 7 -8 173 -152 201 -175 13
-11 49 -40 79 -65 30 -25 59 -50 65 -56 5 -6 64 -53 130 -105 66 -51 125 -98
131 -104 14 -12 196 -150 317 -240 48 -36 92 -65 97 -65 4 0 10 -4 12 -8 5
-13 208 -153 453 -314 495 -325 902 -557 1452 -829 355 -175 299 -177 697 21
259 128 416 211 721 380 33 18 72 41 87 51 14 11 29 19 32 19 19 0 540 326
776 485 229 155 643 452 660 475 3 3 21 17 40 30 19 13 37 27 40 30 3 3 73 59
155 124 131 104 251 204 293 243 7 7 33 29 59 50 25 21 61 52 78 68 17 17 65
59 105 95 142 125 217 197 480 460 330 330 443 453 753 820 46 54 146 179 212
265 39 50 73 92 77 93 5 2 8 10 8 18 0 8 4 14 8 14 5 0 26 25 48 57 21 31 43
61 49 67 26 26 375 530 375 541 0 3 15 26 34 52 71 100 327 531 426 718 29 55
56 105 61 110 41 56 378 773 451 960 10 28 25 64 33 80 87 190 317 840 434
1227 136 447 316 1158 367 1448 2 14 7 36 10 50 3 14 8 36 10 50 2 14 9 45 14
70 5 25 12 59 15 75 3 17 12 65 20 107 8 42 17 96 20 120 4 23 8 45 10 48 2 3
6 30 10 60 3 29 8 56 9 59 2 3 7 29 10 56 4 28 9 57 11 65 2 8 6 35 9 60 3 25
8 56 11 70 4 22 38 259 50 350 21 167 32 252 40 325 2 28 7 68 9 90 5 38 12
106 21 205 3 25 7 72 10 105 3 33 8 85 10 115 3 30 7 87 10 125 2 39 7 95 10
125 4 51 9 134 20 375 25 503 21 1133 -10 1760 -3 61 -7 160 -10 220 -2 61 -7
142 -9 180 -3 39 -8 131 -11 205 -3 74 -8 162 -10 195 -7 105 -18 329 -19 367
-1 20 -4 39 -8 43 -4 4 -64 -2 -135 -14 -70 -11 -146 -23 -168 -26 -22 -3 -53
-8 -70 -10 -16 -3 -52 -7 -80 -10 -27 -3 -68 -7 -90 -10 -354 -40 -1110 -51
-1450 -21 -27 3 -84 8 -125 11 -72 6 -132 12 -195 20 -67 8 -141 17 -155 20
-8 1 -35 6 -60 10 -87 13 -95 15 -150 25 -68 14 -94 19 -122 24 -13 2 -54 12
-93 21 -38 9 -77 18 -85 20 -144 31 -419 120 -605 194 -116 47 -377 172 -477
230 -21 11 -55 31 -75 42 -21 12 -90 51 -153 87 -63 36 -135 76 -160 90 -25
14 -79 44 -120 67 -214 121 -534 266 -850 385 -91 34 -174 66 -185 71 -20 9
-166 57 -310 102 -120 38 -388 109 -460 123 -11 2 -29 6 -40 8 -296 65 -588
101 -893 111 -84 2 -102 0 -98 -11 3 -7 1 -16 -5 -19 -5 -4 -8 -1 -7 5 3 11
-35 33 -44 25z m57 -54 c3 -5 2 -12 -3 -15 -5 -3 -9 1 -9 9 0 17 3 19 12 6z"/>
</g>
</svg>
